<?xml version="1.0" encoding="UTF-8"?>
<svg id="Capa_2" data-name="Capa 2" xmlns="http://www.w3.org/2000/svg" viewBox="0 0 965.86 401.88">
  <defs>
    <style>
      .cls-1 {
        fill: #fff;
        stroke-width: 0px;
      }
    </style>
  </defs>
  <g id="Blanco">
    <g id="Blanco-2" data-name="Blanco">
      <g>
        <path class="cls-1" d="M441.04,170.08c4.76,2.92,10.47,4.38,17.14,4.38,7.69,0,14.1-1.92,19.23-5.77,5.12-3.85,8.72-9.03,10.79-15.54l-11.26-3.1c-1.3,4.32-3.51,7.72-6.62,10.19-3.12,2.47-7.17,3.71-12.14,3.71-4.48,0-8.21-1-11.21-3.01-3-2.01-5.24-4.83-6.74-8.46-1.5-3.63-2.25-7.88-2.25-12.76.03-4.88.8-9.13,2.29-12.76,1.5-3.63,3.74-6.45,6.72-8.46,2.98-2.01,6.71-3.01,11.19-3.01,4.97,0,9.02,1.23,12.14,3.68,3.12,2.46,5.33,5.86,6.62,10.22l11.26-3.1c-2.07-6.52-5.67-11.7-10.79-15.54-5.13-3.84-11.54-5.77-19.23-5.77-6.67,0-12.38,1.46-17.14,4.38-4.76,2.92-8.41,6.99-10.96,12.21-2.55,5.22-3.82,11.27-3.82,18.16s1.27,12.94,3.82,18.16c2.55,5.22,6.2,9.29,10.96,12.21Z"/>
        <path class="cls-1" d="M509.66,171.6c3.84,2.32,8.34,3.48,13.48,3.48s9.64-1.15,13.48-3.45c3.84-2.3,6.83-5.49,8.98-9.57,2.14-4.08,3.22-8.79,3.22-14.12s-1.06-9.99-3.19-14.08c-2.13-4.08-5.11-7.28-8.96-9.6-3.84-2.32-8.35-3.48-13.53-3.48s-9.5,1.14-13.34,3.43c-3.84,2.29-6.84,5.46-9,9.53-2.16,4.06-3.24,8.8-3.24,14.19s1.06,9.99,3.17,14.07c2.11,4.08,5.09,7.28,8.93,9.6ZM511.14,139.38c.95-2.46,2.42-4.38,4.41-5.76,1.98-1.38,4.52-2.07,7.6-2.07,4.51,0,7.89,1.49,10.14,4.45,2.25,2.97,3.38,6.95,3.38,11.93s-1.11,8.76-3.33,11.81c-2.22,3.05-5.62,4.57-10.19,4.57s-7.76-1.48-10.03-4.45c-2.27-2.97-3.4-6.95-3.4-11.93,0-3.24.48-6.09,1.43-8.55Z"/>
        <rect class="cls-1" x="560.25" y="104.97" width="11.48" height="70.02"/>
        <path class="cls-1" d="M595.68,171.7c3.94,2.25,8.51,3.38,13.72,3.38s9.49-1.28,13.6-3.86c4.11-2.57,7.15-6.18,9.12-10.81l-11.34-3.43c-1.11,2.38-2.69,4.2-4.74,5.45-2.05,1.25-4.49,1.88-7.31,1.88-4.38,0-7.72-1.43-10-4.29-1.79-2.24-2.87-5.22-3.26-8.91h37.22c.45-6.16-.24-11.51-2.05-16.05-1.81-4.54-4.58-8.06-8.31-10.55-3.73-2.49-8.26-3.74-13.6-3.74-5.05,0-9.5,1.14-13.34,3.43-3.84,2.29-6.84,5.5-9,9.64-2.16,4.14-3.24,9.03-3.24,14.65,0,5.21,1.1,9.81,3.31,13.81,2.21,4,5.28,7.13,9.22,9.38ZM609.21,130.83c4.16,0,7.21,1.29,9.15,3.86,1.37,1.82,2.26,4.42,2.67,7.76h-25.28c.53-2.97,1.52-5.4,2.98-7.26,2.29-2.91,5.78-4.36,10.48-4.36Z"/>
        <path class="cls-1" d="M651.6,171.51c3.52,2.38,7.65,3.57,12.38,3.57,5.02,0,9.22-1.19,12.62-3.57.21-.15.41-.31.62-.47v4.9c.06,2.44-.42,4.48-1.45,6.12-1.03,1.64-2.49,2.87-4.36,3.72-1.87.84-4,1.26-6.38,1.26-2.03,0-3.95-.45-5.74-1.36-1.79-.91-3.19-2.3-4.17-4.17l-10.57,5.24c1.33,2.35,3.05,4.36,5.15,6.02,2.1,1.67,4.45,2.94,7.07,3.83,2.62.89,5.36,1.33,8.22,1.33,3.87,0,7.41-.52,10.6-1.57,3.19-1.05,5.87-2.64,8.02-4.79,2.16-2.14,3.62-4.88,4.38-8.22.25-1.14.44-2.31.55-3.5.11-1.19.17-2.44.17-3.74v-53.92h-10.05v3.69c-.61-.56-1.25-1.09-1.93-1.57-3.32-2.37-7.42-3.55-12.31-3.55s-9.08,1.18-12.67,3.55c-3.59,2.37-6.36,5.59-8.31,9.67-1.95,4.08-2.93,8.73-2.93,13.93s.97,9.76,2.91,13.86c1.94,4.1,4.67,7.33,8.19,9.71ZM654.08,139.43c.95-2.55,2.43-4.59,4.43-6.1,2-1.51,4.54-2.26,7.62-2.26s5.3.71,7.15,2.12c1.84,1.41,3.2,3.38,4.07,5.91.87,2.52,1.31,5.47,1.31,8.84s-.44,6.27-1.31,8.81c-.88,2.54-2.25,4.52-4.14,5.93-1.89,1.41-4.37,2.12-7.46,2.12s-5.44-.74-7.38-2.24c-1.94-1.49-3.37-3.52-4.31-6.07-.94-2.56-1.4-5.41-1.4-8.55s.48-5.95,1.43-8.5Z"/>
        <rect class="cls-1" x="702.99" y="105.21" width="11.48" height="10.53"/>
        <rect class="cls-1" x="702.99" y="123.54" width="11.48" height="51.44"/>
        <path class="cls-1" d="M738,171.6c3.84,2.32,8.34,3.48,13.48,3.48s9.64-1.15,13.48-3.45c3.84-2.3,6.83-5.49,8.98-9.57,2.14-4.08,3.22-8.79,3.22-14.12s-1.06-9.99-3.19-14.08c-2.13-4.08-5.11-7.28-8.95-9.6-3.84-2.32-8.35-3.48-13.53-3.48s-9.5,1.14-13.34,3.43c-3.84,2.29-6.84,5.46-9,9.53-2.16,4.06-3.24,8.8-3.24,14.19s1.06,9.99,3.17,14.07c2.11,4.08,5.09,7.28,8.93,9.6ZM739.48,139.38c.95-2.46,2.42-4.38,4.4-5.76,1.99-1.38,4.52-2.07,7.6-2.07,4.51,0,7.89,1.49,10.14,4.45,2.25,2.97,3.38,6.95,3.38,11.93s-1.11,8.76-3.33,11.81c-2.22,3.05-5.62,4.57-10.19,4.57s-7.76-1.48-10.03-4.45c-2.27-2.97-3.4-6.95-3.4-11.93,0-3.24.48-6.09,1.43-8.55Z"/>
        <path class="cls-1" d="M463.08,258.44c-2.16.76-4.46,1.14-6.91,1.14-4.13,0-7.77-1.11-10.93-3.33-3.16-2.22-5.25-5.37-6.26-9.43l-11.91,1.81c.7,4.48,2.34,8.34,4.93,11.6,2.59,3.25,5.89,5.75,9.91,7.5,4.02,1.75,8.53,2.62,13.55,2.62,3.52,0,6.9-.45,10.12-1.33,3.22-.89,6.09-2.22,8.6-4,2.51-1.78,4.5-4.01,5.98-6.69,1.48-2.68,2.22-5.8,2.22-9.36s-.63-6.25-1.88-8.48c-1.26-2.22-2.85-4.02-4.79-5.38-1.94-1.36-3.95-2.43-6.05-3.19-2.1-.76-3.98-1.36-5.67-1.81l-12.29-3.43c-1.55-.41-3.09-.93-4.6-1.55-1.51-.62-2.77-1.46-3.79-2.53-1.02-1.06-1.52-2.44-1.52-4.12,0-1.78.59-3.33,1.79-4.67,1.19-1.33,2.76-2.36,4.72-3.07,1.95-.72,4.07-1.06,6.36-1.02,2.35.06,4.56.54,6.64,1.43,2.08.89,3.84,2.18,5.29,3.88,1.45,1.7,2.42,3.76,2.93,6.17l12.34-2.14c-1.02-4.22-2.76-7.83-5.24-10.81-2.48-2.98-5.56-5.26-9.24-6.84s-7.87-2.37-12.57-2.41c-4.64-.03-8.85.7-12.65,2.19-3.79,1.49-6.81,3.74-9.05,6.74-2.24,3-3.36,6.71-3.36,11.12,0,3.02.5,5.55,1.5,7.6,1,2.05,2.29,3.73,3.86,5.05,1.57,1.32,3.24,2.35,5,3.09,1.76.75,3.41,1.34,4.93,1.79l17.72,5.24c1.27.38,2.39.84,3.36,1.36.97.53,1.76,1.1,2.38,1.74.62.64,1.09,1.36,1.4,2.17.32.81.48,1.69.48,2.64,0,2.13-.67,3.92-2.02,5.38-1.35,1.46-3.1,2.57-5.26,3.33Z"/>
        <path class="cls-1" d="M535.19,269.8v-31.58c0-2.22-.09-4.28-.29-6.17-.19-1.89-.75-3.74-1.67-5.55-1.68-3.4-4.26-5.84-7.74-7.34-3.48-1.49-7.5-2.24-12.07-2.24-6.07,0-10.88,1.32-14.46,3.95-3.57,2.64-5.99,6.13-7.26,10.48l10.48,3.29c.86-2.64,2.37-4.49,4.52-5.57,2.16-1.08,4.4-1.62,6.72-1.62,3.84,0,6.57.84,8.19,2.52,1.35,1.4,2.11,3.45,2.32,6.15-2.07.31-4.1.6-6.06.88-3.25.46-6.27.96-9.05,1.5-2.78.54-5.2,1.14-7.27,1.81-2.73.92-4.95,2.1-6.67,3.55-1.71,1.45-2.99,3.16-3.81,5.15-.83,1.98-1.24,4.21-1.24,6.69,0,2.83.66,5.41,1.98,7.76,1.32,2.35,3.26,4.23,5.83,5.64,2.57,1.41,5.71,2.12,9.43,2.12,4.64,0,8.5-.87,11.6-2.6,2.38-1.33,4.53-3.26,6.45-5.76v6.93h10.05ZM522.67,253.56c-.38,1.18-1.12,2.43-2.22,3.76-1.1,1.33-2.56,2.46-4.4,3.38-1.84.92-4.07,1.38-6.67,1.38-1.81,0-3.33-.29-4.55-.86-1.22-.57-2.15-1.34-2.79-2.31-.64-.97-.95-2.09-.95-3.36,0-1.11.25-2.08.74-2.9.49-.83,1.2-1.56,2.12-2.19.92-.63,2.05-1.19,3.38-1.67,1.37-.44,2.94-.85,4.72-1.22,1.78-.36,3.91-.75,6.38-1.17,1.58-.26,3.38-.56,5.36-.87-.02.87-.05,1.86-.1,2.99-.08,1.89-.42,3.57-1.02,5.03Z"/>
        <path class="cls-1" d="M594.78,270.35v-28.72c0-1.24-.1-2.85-.31-4.84-.21-1.98-.66-4.09-1.36-6.31-.7-2.22-1.78-4.32-3.24-6.29-1.46-1.97-3.43-3.59-5.91-4.86-2.48-1.27-5.62-1.91-9.43-1.91-4.83,0-8.89,1.06-12.19,3.17-1.77,1.14-3.31,2.49-4.62,4.04v-5.73h-10.24v51.44h11.62v-26.44c0-3.14.35-5.72,1.05-7.74.7-2.02,1.63-3.6,2.79-4.76,1.16-1.16,2.45-1.98,3.88-2.45,1.43-.48,2.87-.72,4.33-.72,2.73,0,4.9.59,6.5,1.76,1.6,1.18,2.81,2.68,3.62,4.5.81,1.83,1.32,3.72,1.55,5.69.22,1.97.33,3.76.33,5.38v24.77h11.62Z"/>
        <path class="cls-1" d="M627.33,270.34c3.25.08,6.58-.2,9.98-.83v-9.62c-3.21.48-6.07.6-8.57.38-2.51-.22-4.33-1.28-5.48-3.19-.6-.98-.93-2.25-.98-3.81-.05-1.55-.07-3.36-.07-5.43v-20.77h15.1v-9h-15.1v-14.29h-11.43v14.29h-9.34v9h9.34v21.43c0,2.92.03,5.54.09,7.86.06,2.32.68,4.59,1.86,6.81,1.33,2.45,3.29,4.23,5.86,5.36,2.57,1.13,5.48,1.73,8.74,1.81Z"/>
        <path class="cls-1" d="M680.85,262.87v6.93h10.05v-31.58c0-2.22-.1-4.28-.29-6.17-.19-1.89-.75-3.74-1.67-5.55-1.68-3.4-4.26-5.84-7.74-7.34-3.48-1.49-7.5-2.24-12.07-2.24-6.07,0-10.88,1.32-14.46,3.95-3.57,2.64-5.99,6.13-7.26,10.48l10.48,3.29c.86-2.64,2.37-4.49,4.52-5.57,2.16-1.08,4.4-1.62,6.72-1.62,3.84,0,6.57.84,8.19,2.52,1.35,1.4,2.11,3.45,2.32,6.15-2.07.31-4.1.6-6.06.88-3.25.46-6.27.96-9.05,1.5-2.78.54-5.2,1.14-7.27,1.81-2.73.92-4.95,2.1-6.67,3.55-1.71,1.45-2.99,3.16-3.81,5.15-.83,1.98-1.24,4.21-1.24,6.69,0,2.83.66,5.41,1.98,7.76,1.32,2.35,3.26,4.23,5.83,5.64,2.57,1.41,5.71,2.12,9.43,2.12,4.64,0,8.5-.87,11.6-2.6,2.38-1.33,4.53-3.26,6.45-5.76ZM665.08,262.09c-1.81,0-3.33-.29-4.55-.86-1.22-.57-2.15-1.34-2.79-2.31-.64-.97-.95-2.09-.95-3.36,0-1.11.25-2.08.74-2.9.49-.83,1.2-1.56,2.12-2.19.92-.63,2.05-1.19,3.38-1.67,1.37-.44,2.94-.85,4.72-1.22,1.78-.36,3.91-.75,6.38-1.17,1.58-.26,3.38-.56,5.36-.87-.02.87-.05,1.86-.1,2.99-.08,1.89-.42,3.57-1.02,5.03-.38,1.18-1.12,2.43-2.22,3.76-1.1,1.33-2.56,2.46-4.41,3.38-1.84.92-4.07,1.38-6.67,1.38Z"/>
        <polygon class="cls-1" points="790.44 270.35 790.44 201.76 780.11 201.76 756.39 250.34 732.67 201.76 722.33 201.76 722.33 270.35 733.09 270.35 733.09 226.39 754.1 270.35 758.67 270.35 779.72 226.39 779.72 270.35 790.44 270.35"/>
        <path class="cls-1" d="M844.31,226.51c-1.68-3.4-4.26-5.84-7.74-7.34-3.48-1.49-7.5-2.24-12.07-2.24-6.07,0-10.88,1.32-14.46,3.95-3.57,2.64-5.99,6.13-7.26,10.48l10.48,3.29c.86-2.64,2.37-4.49,4.53-5.57,2.16-1.08,4.4-1.62,6.72-1.62,3.84,0,6.57.84,8.19,2.52,1.35,1.4,2.11,3.45,2.32,6.15-2.07.31-4.1.6-6.06.88-3.25.46-6.27.96-9.05,1.5-2.78.54-5.2,1.14-7.27,1.81-2.73.92-4.95,2.1-6.67,3.55-1.72,1.45-2.99,3.16-3.81,5.15-.83,1.98-1.24,4.21-1.24,6.69,0,2.83.66,5.41,1.98,7.76,1.32,2.35,3.26,4.23,5.83,5.64,2.57,1.41,5.71,2.12,9.43,2.12,4.64,0,8.5-.87,11.6-2.6,2.38-1.33,4.53-3.26,6.45-5.77v6.93h10.05v-31.58c0-2.22-.09-4.28-.29-6.17-.19-1.89-.75-3.74-1.67-5.55ZM833.74,253.56c-.38,1.18-1.12,2.43-2.21,3.76-1.1,1.33-2.57,2.46-4.41,3.38-1.84.92-4.07,1.38-6.67,1.38-1.81,0-3.33-.29-4.55-.86-1.22-.57-2.15-1.34-2.79-2.31-.64-.97-.95-2.09-.95-3.36,0-1.11.25-2.08.74-2.9.49-.83,1.2-1.56,2.12-2.19.92-.63,2.05-1.19,3.38-1.67,1.37-.44,2.94-.85,4.72-1.22,1.78-.36,3.91-.75,6.38-1.17,1.58-.26,3.38-.56,5.36-.87-.02.87-.05,1.86-.1,2.99-.08,1.89-.42,3.57-1.02,5.03Z"/>
        <path class="cls-1" d="M882.89,218.7c-1.62.11-3.2.41-4.74.9-1.54.49-2.94,1.17-4.22,2.02-1.49.92-2.77,2.09-3.83,3.5-.48.64-.91,1.32-1.31,2.02v-8.24h-10.14v51.44h11.53v-26.15c0-1.97.24-3.8.71-5.5.48-1.7,1.21-3.22,2.21-4.55,1-1.33,2.29-2.43,3.88-3.29,1.59-.95,3.37-1.51,5.36-1.67,1.98-.16,3.74-.02,5.26.43v-10.72c-1.52-.26-3.1-.33-4.72-.22Z"/>
        <rect class="cls-1" x="897.61" y="218.91" width="11.48" height="51.44"/>
        <polygon class="cls-1" points="899.14 211.53 907.85 211.53 915.23 193.9 906.52 193.9 899.14 211.53"/>
        <path class="cls-1" d="M965.58,232.06c-.19-1.89-.75-3.74-1.67-5.55-1.68-3.4-4.26-5.84-7.74-7.34-3.48-1.49-7.5-2.24-12.07-2.24-6.07,0-10.88,1.32-14.46,3.95-3.57,2.64-5.99,6.13-7.26,10.48l10.48,3.29c.86-2.64,2.37-4.49,4.53-5.57,2.16-1.08,4.4-1.62,6.72-1.62,3.84,0,6.57.84,8.19,2.52,1.35,1.4,2.11,3.45,2.32,6.15-2.07.31-4.1.6-6.06.88-3.25.46-6.27.96-9.05,1.5-2.78.54-5.2,1.14-7.27,1.81-2.73.92-4.95,2.1-6.67,3.55-1.72,1.45-2.99,3.16-3.81,5.15-.83,1.98-1.24,4.21-1.24,6.69,0,2.83.66,5.41,1.98,7.76,1.31,2.35,3.26,4.23,5.83,5.64,2.57,1.41,5.71,2.12,9.43,2.12,4.64,0,8.5-.87,11.6-2.6,2.38-1.33,4.53-3.26,6.45-5.77v6.93h10.05v-31.58c0-2.22-.1-4.28-.29-6.17ZM953.34,253.56c-.38,1.18-1.12,2.43-2.21,3.76-1.1,1.33-2.57,2.46-4.41,3.38-1.84.92-4.07,1.38-6.67,1.38-1.81,0-3.33-.29-4.55-.86-1.22-.57-2.15-1.34-2.79-2.31-.64-.97-.95-2.09-.95-3.36,0-1.11.25-2.08.74-2.9.49-.83,1.2-1.56,2.12-2.19.92-.63,2.05-1.19,3.38-1.67,1.37-.44,2.94-.85,4.72-1.22,1.78-.36,3.91-.75,6.38-1.17,1.58-.26,3.38-.56,5.36-.87-.02.87-.05,1.86-.1,2.99-.08,1.89-.42,3.57-1.02,5.03Z"/>
        <path class="cls-1" d="M571.28,330.68c1.63-.98,3.01-2.29,4.14-3.95,1.79-2.64,2.69-5.84,2.69-9.62,0-3.08-.72-6.06-2.17-8.96-1.45-2.89-3.65-5.26-6.62-7.12-2.97-1.86-6.77-2.79-11.41-2.79h-27.2v68.59h29.96c4.51,0,8.3-.86,11.36-2.57,3.07-1.71,5.38-4.1,6.93-7.15,1.55-3.05,2.33-6.6,2.33-10.67s-1.12-7.51-3.36-10.62c-1.65-2.3-3.88-4.01-6.66-5.15ZM542.34,308.96h15.43c2.73,0,4.86.79,6.38,2.38,1.52,1.59,2.29,3.57,2.29,5.95,0,1.81-.38,3.33-1.14,4.57-.76,1.24-1.79,2.18-3.09,2.81-1.3.64-2.78.95-4.43.95h-15.43v-16.67ZM568.37,351.38c-.9,1.48-2.15,2.62-3.74,3.43-1.59.81-3.38,1.22-5.38,1.22h-16.91v-19.67h17.24c2.13,0,3.95.44,5.48,1.31,1.52.87,2.68,2.04,3.48,3.5.79,1.46,1.19,3.11,1.19,4.95,0,2.03-.45,3.78-1.36,5.26Z"/>
        <rect class="cls-1" x="591.78" y="298.22" width="11.48" height="68.61"/>
        <path class="cls-1" d="M658.08,323.54c-1.68-3.4-4.26-5.84-7.74-7.34-3.48-1.49-7.5-2.24-12.07-2.24-6.07,0-10.88,1.32-14.46,3.95-3.57,2.64-5.99,6.13-7.26,10.48l10.48,3.29c.86-2.64,2.37-4.49,4.52-5.57,2.16-1.08,4.4-1.62,6.72-1.62,3.84,0,6.57.84,8.19,2.53,1.35,1.4,2.11,3.45,2.32,6.15-2.07.31-4.1.6-6.06.88-3.25.46-6.27.96-9.05,1.5-2.78.54-5.2,1.14-7.27,1.81-2.73.92-4.95,2.1-6.67,3.55-1.71,1.45-2.99,3.16-3.81,5.15-.83,1.98-1.24,4.21-1.24,6.69,0,2.83.66,5.41,1.98,7.76,1.32,2.35,3.26,4.23,5.83,5.64,2.57,1.41,5.71,2.12,9.43,2.12,4.64,0,8.5-.87,11.6-2.6,2.38-1.33,4.53-3.26,6.46-5.77v6.93h10.05v-31.58c0-2.22-.1-4.28-.29-6.17-.19-1.89-.75-3.74-1.67-5.55ZM647.5,350.59c-.38,1.18-1.12,2.43-2.22,3.76-1.1,1.33-2.56,2.46-4.41,3.38-1.84.92-4.07,1.38-6.67,1.38-1.81,0-3.33-.29-4.55-.86-1.22-.57-2.15-1.34-2.79-2.31-.64-.97-.95-2.09-.95-3.36,0-1.11.25-2.08.74-2.9.49-.83,1.2-1.56,2.12-2.19.92-.63,2.05-1.19,3.38-1.67,1.37-.44,2.94-.85,4.72-1.22,1.78-.36,3.91-.75,6.38-1.17,1.58-.26,3.38-.56,5.36-.87-.02.87-.05,1.86-.1,2.99-.08,1.89-.42,3.57-1.02,5.03Z"/>
        <path class="cls-1" d="M717.95,326.96c-.7-2.22-1.78-4.32-3.24-6.29-1.46-1.97-3.43-3.59-5.91-4.86-2.48-1.27-5.62-1.91-9.43-1.91-4.83,0-8.89,1.06-12.19,3.17-1.77,1.13-3.31,2.48-4.62,4.04v-5.73h-10.24v51.44h11.62v-26.44c0-3.14.35-5.72,1.05-7.74.7-2.02,1.63-3.6,2.79-4.76,1.16-1.16,2.45-1.98,3.88-2.45,1.43-.48,2.87-.72,4.33-.72,2.73,0,4.9.59,6.5,1.76,1.6,1.18,2.81,2.68,3.62,4.5.81,1.83,1.32,3.72,1.55,5.69.22,1.97.33,3.76.33,5.38v24.77h11.62v-28.72c0-1.24-.1-2.85-.31-4.84-.21-1.98-.66-4.09-1.36-6.31Z"/>
        <path class="cls-1" d="M746.95,326.85c1.94-1.41,4.4-2.12,7.38-2.12,2.64,0,4.98.77,7.05,2.31,2.06,1.54,3.54,3.69,4.43,6.45l11.43-3.1c-1.24-5.08-3.88-9.09-7.93-12.03-4.05-2.94-8.99-4.41-14.84-4.41-5.21,0-9.7,1.17-13.48,3.5-3.78,2.34-6.69,5.54-8.74,9.62-2.05,4.08-3.09,8.76-3.12,14.03.03,5.18,1.04,9.81,3.03,13.91,1.98,4.1,4.85,7.33,8.6,9.69,3.75,2.37,8.27,3.55,13.58,3.55,5.75,0,10.61-1.4,14.57-4.21,3.97-2.81,6.75-6.84,8.34-12.07l-11.72-2.62c-.89,2.64-2.22,4.65-3.98,6.05-1.76,1.4-4.17,2.1-7.22,2.1-4.32,0-7.57-1.51-9.76-4.52-2.19-3.01-3.29-6.97-3.29-11.86,0-3.14.46-5.95,1.38-8.43.92-2.48,2.35-4.42,4.29-5.84Z"/>
        <path class="cls-1" d="M827.35,323.54c-1.68-3.4-4.26-5.84-7.74-7.34-3.48-1.49-7.5-2.24-12.07-2.24-6.07,0-10.88,1.32-14.46,3.95-3.57,2.64-5.99,6.13-7.26,10.48l10.48,3.29c.86-2.64,2.37-4.49,4.52-5.57,2.16-1.08,4.4-1.62,6.72-1.62,3.84,0,6.57.84,8.19,2.53,1.35,1.4,2.11,3.45,2.32,6.15-2.07.31-4.1.6-6.06.88-3.25.46-6.27.96-9.05,1.5-2.78.54-5.2,1.14-7.27,1.81-2.73.92-4.95,2.1-6.67,3.55-1.71,1.45-2.99,3.16-3.81,5.15-.83,1.98-1.24,4.21-1.24,6.69,0,2.83.66,5.41,1.98,7.76,1.32,2.35,3.26,4.23,5.83,5.64,2.57,1.41,5.71,2.12,9.43,2.12,4.64,0,8.5-.87,11.6-2.6,2.38-1.33,4.53-3.26,6.45-5.76v6.93h10.05v-31.58c0-2.22-.1-4.28-.29-6.17-.19-1.89-.75-3.74-1.67-5.55ZM816.78,350.59c-.38,1.18-1.12,2.43-2.22,3.76-1.1,1.33-2.56,2.46-4.41,3.38-1.84.92-4.07,1.38-6.67,1.38-1.81,0-3.33-.29-4.55-.86-1.22-.57-2.15-1.34-2.79-2.31-.64-.97-.95-2.09-.95-3.36,0-1.11.25-2.08.74-2.9.49-.83,1.2-1.56,2.12-2.19.92-.63,2.05-1.19,3.38-1.67,1.37-.44,2.94-.85,4.72-1.22,1.78-.36,3.91-.75,6.38-1.17,1.58-.26,3.38-.56,5.36-.87-.02.87-.05,1.86-.1,2.99-.08,1.89-.42,3.57-1.02,5.03Z"/>
        <rect class="cls-1" x="430.59" y="298.12" width="11.48" height="68.62"/>
        <path class="cls-1" d="M496.91,323.44c-1.68-3.4-4.26-5.85-7.74-7.34-3.48-1.49-7.5-2.24-12.08-2.24-6.07,0-10.89,1.32-14.46,3.95-3.57,2.64-5.99,6.13-7.26,10.48l10.48,3.29c.86-2.64,2.37-4.49,4.53-5.57,2.16-1.08,4.4-1.62,6.72-1.62,3.84,0,6.57.84,8.19,2.53,1.35,1.4,2.11,3.45,2.32,6.15-2.07.31-4.1.6-6.06.88-3.25.46-6.27.96-9.05,1.5-2.78.54-5.2,1.14-7.27,1.81-2.73.92-4.95,2.1-6.67,3.55-1.72,1.45-2.99,3.16-3.81,5.15-.83,1.98-1.24,4.22-1.24,6.69,0,2.83.66,5.41,1.98,7.77,1.32,2.35,3.26,4.23,5.83,5.64,2.57,1.41,5.72,2.12,9.43,2.12,4.64,0,8.5-.87,11.6-2.6,2.38-1.33,4.53-3.26,6.46-5.77v6.93h10.05v-31.59c0-2.22-.09-4.28-.29-6.17-.19-1.89-.75-3.74-1.67-5.55ZM486.33,350.49c-.38,1.18-1.12,2.43-2.22,3.76-1.1,1.33-2.57,2.46-4.41,3.38-1.84.92-4.07,1.38-6.67,1.38-1.81,0-3.33-.29-4.55-.86s-2.15-1.34-2.79-2.31c-.64-.97-.95-2.09-.95-3.36,0-1.11.25-2.08.74-2.9.49-.83,1.2-1.56,2.12-2.19.92-.63,2.05-1.19,3.38-1.67,1.37-.45,2.94-.85,4.72-1.22,1.78-.36,3.91-.75,6.39-1.17,1.58-.26,3.38-.56,5.36-.87-.02.87-.05,1.86-.1,2.99-.08,1.89-.42,3.57-1.02,5.03Z"/>
      </g>
      <g>
        <path class="cls-1" d="M24.66,185.66l.64-1.38c.47-1.02.71-2.11.71-3.24,0-4.29-3.49-7.78-7.77-7.78s-7.78,3.49-7.78,7.78,3.49,7.77,7.78,7.77c1.99,0,3.88-.75,5.32-2.11l1.11-1.04Z"/>
        <path class="cls-1" d="M324.56,235.11c0-4.29-3.49-7.77-7.78-7.77s-7.77,3.49-7.77,7.77c0,.5.05.99.14,1.46l-.62.17c-1.59-4.21-4.24-8.57-8.36-13.73l-.13-.17.1-.19c4.3-8.02,5.92-13.05,4.81-23.42-.45-4.22-1.94-8.31-4.43-12.13l-.83-1.28-.97-1.22c-5.38-6.78-13.71-12.05-23.46-14.83l-.15-.04-.06-.15c-.75-1.9-1.69-3.77-2.78-5.57l-.07-.12.03-.13c1.3-5.03,6.88-6.36,10.95-7.32,2.1-.5,3.91-.93,4.24-1.67.1-.23.05-.5-.15-.85-1.94-3.38-6.61-3.73-10.93-3.64-2.66.06-5.02.92-7.1,1.69-2.84,1.04-5.3,1.94-7.5.46-9.38-7.19-21.49-10.85-33.25-10.08-10.16.67-17.99,2.02-25.39,4.38l-.06.02h-.07c-4.04-.4-5.32-2.23-6.79-4.34l-6.79-9.99c-.52-.79-.61-1.78-.23-2.81l.08-.21h65.82c1.3,0,2.36-.53,3.09-1.53,1.15-1.59,1.31-4.17.42-6.91l-7.9-21.93c-.44-1.12-1.06-2.15-1.83-3.07l-.15-.18,4.92-7.57.22.05c3.08.67,6.24-.57,8.04-3.15.55-.78.94-1.65,1.18-2.58l.25-1.01.36.98c1.86,5.08-1.32,7.76-2.68,8.91-.1.08-.2.17-.28.24,3.79.09,6.96-1.3,8.72-3.82,2.52-3.6,1.83-8.96-1.76-13.65-2.61-3.12-6.08-5.55-10.31-7.22-5.61-1.76-10.88-.58-13.4,3.03-1.77,2.53-1.98,6-.59,9.55.05-.12.1-.26.15-.4.61-1.71,2.03-5.72,7.33-5.48l.94.04-.77.54c-.74.52-1.38,1.16-1.9,1.91-1.88,2.68-1.88,6.29.01,8.97l.13.18-4.74,7.3-.26-.13c-1.96-1.01-4.18-1.79-6.33-2.54-.66-.23-1.32-.47-1.97-.7-2.29-.68-4.66-1.36-7.03-2.01l-.28-.08,1.59-9.01.22-.04c3.72-.65,6.42-3.86,6.42-7.63,0-4.27-3.48-7.75-7.75-7.75s-7.75,3.48-7.75,7.75c0,2.64,1.32,5.07,3.54,6.51l.18.12-1.54,8.71-.34-.09c-6.36-1.62-12.63-3.01-18.65-4.11l-.29-.05.9-8.53.21-.06c3.26-.97,5.53-4.02,5.53-7.43,0-4.27-3.48-7.75-7.75-7.75s-7.75,3.48-7.75,7.75c0,2.98,1.66,5.64,4.33,6.96l.2.1-.85,8.08-.33-.05c-10.78-1.71-21.12-2.62-31.61-2.77h-.32v-6.69l.21-.08c4.92-1.9,8.23-6.72,8.23-12,0-1.5-.26-2.98-.77-4.38l-.32-.88.79.5c7.13,4.52,5.33,11.08,4.56,13.88-.11.41-.24.87-.27,1.12.07-.04.17-.09.32-.19,5.26-3.45,8.27-8.36,8.27-13.46,0-7.22-5.96-13.78-15.18-16.7l-.27-.08.05-.27c.09-.57.14-1.14.14-1.7,0-2.69-1.04-5.23-2.93-7.15-.87-1-2.03-1.74-3.47-2.21l-.22-.07v-9.41h11.31s0-7.12,0-7.12h-11.31V0h-7.12v10.94h-11.31v7.12h11.31s0,9.53,0,9.53l-.22.07c-1.42.49-2.61,1.21-3.46,2.09-.03.03-3.17,3.27-2.93,7.13l.02.42c.02.45.05.88.12,1.3l.05.27-.27.08c-9.22,2.92-15.18,9.48-15.18,16.7,0,5.07,2.98,9.95,8.18,13.4.16.11.27.17.35.21-.03-.24-.14-.66-.24-1.05-.73-2.75-2.42-9.18,4.66-14.12l.85-.6-.37.97c-.56,1.47-.84,3.02-.84,4.59,0,5.33,3.2,10.03,8.16,11.97l.2.08v6.71h-.32c-10.49.16-20.83,1.07-31.61,2.78l-.33.05-.85-8.08.2-.1c2.67-1.32,4.33-3.98,4.33-6.96,0-4.27-3.48-7.75-7.75-7.75s-7.75,3.48-7.75,7.75c0,3.4,2.27,6.46,5.53,7.43l.21.06.9,8.53-.29.05c-6.01,1.1-12.28,2.48-18.65,4.11l-.34.09-1.54-8.71.18-.12c2.22-1.44,3.54-3.87,3.54-6.51,0-4.27-3.48-7.75-7.75-7.75s-7.75,3.48-7.75,7.75c0,3.78,2.7,6.99,6.42,7.63l.22.04,1.59,9.01-.28.08c-2.37.65-4.75,1.33-7.05,2.02-.63.23-1.3.47-1.96.7-2.15.76-4.36,1.54-6.32,2.54l-.26.13-4.74-7.3.13-.18c1.89-2.68,1.89-6.28.01-8.97-.53-.75-1.17-1.39-1.91-1.91l-.77-.54.94-.04c5.29-.25,6.72,3.77,7.33,5.48.05.13.1.27.14.39,1.39-3.54,1.18-7.02-.59-9.55-2.52-3.6-7.79-4.79-13.43-3.02-4.21,1.66-7.68,4.09-10.3,7.22-3.58,4.68-4.27,10.03-1.75,13.64,1.76,2.52,4.94,3.91,8.72,3.82-.09-.08-.19-.16-.28-.24-1.36-1.15-4.53-3.83-2.67-8.91l.36-.98.25,1.01c.23.92.63,1.79,1.18,2.57,1.81,2.58,4.97,3.82,8.04,3.15l.22-.05,4.92,7.57-.15.18c-.77.91-1.39,1.95-1.83,3.08l-7.9,21.93c-.89,2.73-.73,5.31.42,6.9.73,1,1.8,1.53,3.09,1.53h65.65l.08.21c.38,1.02.29,2.02-.23,2.81l-6.79,9.99c-1.48,2.12-2.76,3.94-6.8,4.34h-.07s-.06-.01-.06-.01c-7.4-2.36-15.24-3.71-25.39-4.38-11.76-.77-23.87,2.89-33.23,10.07-2.22,1.49-4.68.59-7.52-.45-2.08-.76-4.45-1.63-7.1-1.69-4.32-.1-8.99.26-10.93,3.64-.2.34-.25.62-.15.85.32.74,2.14,1.17,4.24,1.67,4.08.97,9.66,2.29,10.96,7.32l.03.13-.07.12c-1.09,1.8-2.03,3.67-2.78,5.57l-.06.15-.15.04c-9.75,2.78-18.08,8.05-23.46,14.83l-.97,1.22-.83,1.28c-2.49,3.83-3.98,7.91-4.43,12.13-1.11,10.37.51,15.4,4.81,23.42l.1.19-.13.17c-4.11,5.15-6.77,9.51-8.36,13.73l-.62-.17c.09-.48.14-.97.14-1.46,0-4.29-3.49-7.77-7.77-7.77s-7.78,3.49-7.78,7.77,3.49,7.77,7.78,7.77c2.97,0,5.64-1.65,6.96-4.32l.6.23c-1.72,5.81-1.31,11.4,1.23,17.07,2.42,5.4,5.94,9.83,10.45,13.14l.17.12-.04.2c-1.71,7.98-1.94,15.5-.68,22.33l-.62.16c-1.05-3.21-4.02-5.36-7.39-5.36-4.29,0-7.77,3.49-7.77,7.77s3.49,7.78,7.77,7.78,7.78-3.49,7.78-7.78c0-.24-.01-.47-.03-.7l.63-.1c3.6,15.92,15.54,27.22,32.76,30.99l.22.05.03.22c1.18,7.69,3.43,15.05,6.67,21.9l-.56.31c-1.44-2.24-3.89-3.58-6.55-3.58-4.29,0-7.78,3.49-7.78,7.77s3.49,7.78,7.78,7.78,7.77-3.49,7.77-7.78c0-.89-.15-1.76-.44-2.59l.59-.25c6.18,12.24,15.41,22.34,26.68,29.21l-.28.57c-.91-.36-1.87-.54-2.86-.54-4.29,0-7.77,3.49-7.77,7.78s3.49,7.77,7.77,7.77,7.78-3.49,7.78-7.77c0-2.36-1.05-4.56-2.89-6.05l.36-.53c12.07,6.76,25.26,9.34,38.16,7.46l.15.62c-3.12,1.09-5.21,4.04-5.21,7.34,0,4.29,3.49,7.78,7.78,7.78s7.77-3.49,7.77-7.78-3.49-7.77-7.77-7.77l-.06-.64c7.57-1.47,17.33-4.01,25.74-10.6l.2-.16.2.16c6.92,5.42,14.27,8.59,24.59,10.6l-.06.64c-4.29,0-7.78,3.49-7.78,7.77s3.49,7.78,7.78,7.78,7.77-3.49,7.77-7.78c0-3.3-2.09-6.25-5.21-7.34l.15-.62c12.9,1.88,26.09-.7,38.16-7.46l.36.53c-1.84,1.48-2.89,3.69-2.89,6.05,0,4.29,3.49,7.77,7.77,7.77s7.78-3.49,7.78-7.77-3.49-7.78-7.78-7.78c-.98,0-1.95.18-2.86.54l-.29-.57c11.28-6.87,20.5-16.96,26.68-29.21l.59.25c-.29.83-.44,1.7-.44,2.59,0,4.29,3.49,7.78,7.78,7.78s7.78-3.49,7.78-7.78-3.49-7.77-7.78-7.77c-2.66,0-5.11,1.34-6.55,3.58l-.56-.31c3.25-6.84,5.49-14.21,6.67-21.9l.03-.22.22-.05c17.22-3.77,29.17-15.06,32.76-30.99l.63.1c-.02.23-.03.46-.03.7,0,4.29,3.49,7.78,7.78,7.78s7.77-3.49,7.77-7.78-3.49-7.77-7.77-7.77c-3.38,0-6.35,2.16-7.39,5.36l-.62-.16c1.26-6.84,1.03-14.35-.68-22.33l-.04-.2.17-.12c4.51-3.32,8.03-7.74,10.45-13.14,2.54-5.68,2.94-11.26,1.23-17.07l.6-.23c1.32,2.66,3.99,4.32,6.97,4.32,4.29,0,7.78-3.49,7.78-7.77ZM226.61,153.83c16.96,1.11,29.17,5.59,36.31,13.33l.53.58-.78-.04c-11.11-.55-21.9,2.19-31.22,7.92-18.35,11.29-25.31,19.38-40.66,38.2l-.2.24-22.51-17.11,26.21-13.83-23.95-12.7.53-.28c5.58-2.97,34.5-17.7,55.74-16.31ZM162.46,175.16l16.02,7.97-16.21,7.78-16.21-7.78,16.4-7.97ZM162.28,164.91c-10.08-.11-23.45-14.43-23.45-25.11,0-8.67,8.8-10.12,17.42-10.39h12.04c8.63.27,17.43,1.72,17.43,10.39,0,10.68-13.36,25-23.44,25.11ZM162.28,204.05l20.49,19.41-20.36,25.69-20.71-25.76,20.57-19.34ZM152.59,260.46l-.17.2c-4.35,5.26-10.17,11.5-17.29,18.55l-.26.26-.22-.3c-2.43-3.27-4.87-6.7-7.24-10.01-4.88-6.84-9.5-13.31-14.17-18.81l-.2-.23.22-.21c1.88-1.77,3.94-3.53,6.13-5.4,3.75-3.2,7.62-6.5,11.43-10.57l.25-.27,21.51,26.78ZM162.28,271.86l18.91,19.75-18.91,26.43-18.71-26.35,18.71-19.83ZM172.17,260.66l-.17-.2,21.35-26.64.25.27c3.87,4.13,7.99,7.69,11.62,10.83,2.12,1.84,4.13,3.58,5.96,5.3l.21.2-.18.23c-4.26,5.55-8.92,11.88-13.85,18.59-2.46,3.35-4.94,6.72-7.39,10.03l-.22.3-.26-.26c-4.8-4.74-11.69-11.83-17.33-18.65ZM76.69,118.46l3.13-10.88c2.3-5.82,5.6-7.27,10.8-9.17l.89-.26,2.38,10.27,16.64-3.66-2.51-10.84.32-.07c4.73-1.03,9.56-1.93,14.34-2.68l.34-.05.83,11.2,16.81-1.17-.89-12.07.32-.03c4.43-.38,8.91-.65,13.32-.8h.33s0,12.11,0,12.11h17.24v-12.12h.33c4.41.16,8.9.43,13.33.81l.32.03-.89,12.07,16.81,1.17.83-11.2.34.05c4.78.75,9.61,1.65,14.34,2.68l.32.07-2.51,10.84,16.64,3.66,2.38-10.27.87.26c5.22,1.9,8.52,3.36,10.81,9.15l3.14,10.91h-85.78s-85.57,0-85.57,0ZM61.65,167.16c7.14-7.74,19.35-12.23,36.31-13.33,21.98-1.44,52.39,14.35,55.79,16.15l.53.28-24,12.86,26.24,13.84-.44.3c-7.52,5.2-14.71,10.62-21.98,16.58l-.26.21-.2-.26c-14.46-18.84-22.35-26.99-40.51-38.17-9.31-5.73-20.11-8.46-31.22-7.92l-.78.04.53-.58ZM22.02,247.32h0c-2.73-9.64,5.17-18.49,12.77-23.14l.39-.24.1.44c.76,3.56,3.96,6.14,7.6,6.14,4.29,0,7.78-3.49,7.78-7.78s-3.49-7.77-7.78-7.77c-3.16,0-5.98,1.88-7.19,4.8l-.18.45-.34-.34c-4.49-4.54-6.53-9.08-6.82-15.2-.46-9.53,6.91-18.99,18.34-23.53l.45-.18v.48c-.09,4.76.85,9.58,2.78,14.31l.05.12-.05.12c-.37.92-.56,1.89-.56,2.89,0,4.29,3.49,7.77,7.77,7.77s7.78-3.49,7.78-7.77-3.49-7.78-7.78-7.78c-.5,0-1.02.05-1.52.15l-.31.06-.07-.31c-.38-1.76-1.12-6.44.15-11.97l.05-.22.22-.03c8.69-1.16,17.27.69,24.82,5.33,16.62,10.22,28.42,23.69,42.07,39.29l.21.24-.23.23c-5.53,4.88-10.3,8.98-14.51,12.59l-3.58,3.08-.21-.23c-11.11-11.93-19.78-20.27-25.89-22.2-19.89,8.51-31.99,27.77-29.43,46.88l.05.35-.35.02c-.76.04-1.5.05-2.23.05-12.95,0-21.14-5.75-24.36-17.12ZM95.95,246.16l-.28.2c-16.23,11.28-22.93,14.74-39.09,17.63l-.35.06-.03-.35c-1.18-13.3,6.31-26.47,21.65-38.09l.22-.17.2.19c5.65,5.56,11.39,12.7,17.46,20.26l.22.27ZM62.16,292.49c-2.72,5.24-4.02,12.21-3.87,20.73v.39s-.38-.07-.38-.07c-9.06-1.63-16.21-6.05-20.69-12.79-4.92-7.4-6.26-16.97-3.88-27.67l.08-.38.36.15c5.12,2.2,11.57,3.51,18.15,3.69h.21s.08.2.08.2c2.45,5.77,6.14,11.51,9.88,15.37l.16.17-.11.21ZM66.35,314.28c-.13,0-.26,0-.38,0h-.3s-.02-.3-.02-.3c-.33-5.27-.44-10.5,1.75-16.58l.14-.39.34.23c8.28,5.49,17.21,6.87,23.32,3.6,3.85-2.06,5.96-5.71,5.96-10.27,0-5.39-2.62-9.59-7.18-11.53-6.89-2.93-16.11-.25-23.49,6.85l-.24.23-.22-.25c-1.88-2.16-3.9-5.21-6.02-9.07l-.23-.42.48-.05c8.91-.94,18.3-4,28.69-9.35,5.64-2.9,9.87-6.02,14.81-9.8l.26-.2.19.26c6.77,8.99,15,20.57,21.61,29.87l.17.24-.22.19c-20.24,17.76-40.23,26.76-59.41,26.76ZM70.88,290.51l.22-.23c.2-.21,5.03-5.22,10.07-5.22s9.31,2.44,9.31,5.45-3.81,5.41-8.87,5.41-10.28-4.96-10.5-5.18l-.23-.22ZM154.3,369.35c-10.59,5.49-20.25,7.47-28.68,7.47-9.17,0-16.89-2.35-22.76-5.08-17.44-8.11-30.62-25.21-35.25-45.73l-.09-.41.42.02c22.12.88,43.9-7.68,66.58-26.14l.27-.22.2.28c2.97,4.2,6.47,8.66,10.18,13.37,3.54,4.5,7.2,9.15,10.4,13.62l.14.19-.15.19c-4.3,5.58-9.23,11.52-12.83,15.85-1.26,1.52-2.36,2.84-3.21,3.88l-.2.25-.58-.47c-5.65-4.59-12.68-10.31-20.84-10.31-15.02,0-25.48,8.6-25.48,16.31s11.18,16.31,26.14,16.31c7.68,0,13.93-4.86,19.99-9.57.61-.48,1.22-.95,1.82-1.41l.21-.16.2.17c3.6,3.06,8.88,7.45,13.57,11.04l.4.31-.45.23ZM134.03,352.04l-.2.24c-.32.39-7.82,9.47-16.6,9.47s-16.12-4.18-16.12-9.32,7.23-9.33,16.12-9.33c6.14,0,16.13,8.37,16.55,8.73l.24.2ZM162.36,364.77l-16.21-12.42,16.14-17.56,16.51,17.86-16.43,12.12ZM256.93,326.02c-4.7,20.85-16.85,37.4-33.34,45.43-7.18,3.49-14.9,5.24-22.96,5.24-9.48,0-19.43-2.41-29.56-7.21l-.43-.2.35-.32c3.08-2.88,6.15-5.16,8.86-7.17,1.75-1.3,3.41-2.53,4.87-3.77l.23-.2.21.23c4.8,5.17,12.79,10.7,20.82,10.7,14.96,0,26.14-8.61,26.14-16.31s-9.93-16.31-24.71-16.31c-6.76,0-15.33,5.8-21.32,10.67l-.22.18-.2-.2c-4.78-4.65-10.17-11.65-15.88-19.07l-.63-.82.14-.19c3.18-4.44,6.76-9.05,10.21-13.51,3.67-4.73,7.14-9.2,10.13-13.44l.2-.28.27.22c21.61,17.84,44.6,26.81,66.5,25.94l.42-.02-.09.41ZM191.21,352.25l.22-.2c.4-.36,9.91-8.94,15.9-8.94,8.89,0,16.12,4.18,16.12,9.33s-7.23,9.32-16.12,9.32-15.65-8.89-15.94-9.27l-.18-.23ZM258.92,313.98l-.02.3h-.3c-.13,0-.27,0-.4,0-19.52,0-39.51-8.93-59.43-26.54l-.22-.19.17-.24c6.98-9.82,14.89-20.96,21.58-29.83l.19-.26.26.2c4.85,3.7,8.72,6.54,14.32,9.43,7.05,3.63,17.85,8.21,29.29,9.41l.48.05-.23.42c-2.17,3.95-4.13,6.91-5.98,9.04l-.22.25-.24-.22c-7.73-7.07-17.08-9.72-23.81-6.75-4.42,1.95-6.96,6.14-6.96,11.51,0,4.51,2.26,8.14,6.37,10.22,6.49,3.29,15.58,1.84,23.15-3.71l.41-.3.09.5c1.28,6.9,1.83,11.16,1.49,16.7ZM228.68,246.24l1.85-2.31c5.48-6.83,10.66-13.29,15.75-18.29l.2-.19.22.17c15.28,11.57,22.73,24.76,21.55,38.12l-.03.33-.33-.04c-14.58-1.91-23.79-6.97-38.93-17.58l-.28-.2ZM253.6,290.53l-.26.22c-.25.21-6.14,5.16-9.95,5.2-.05,0-.11,0-.16,0-3.2,0-6.2-1-7.85-2.64-.85-.84-1.31-1.82-1.31-2.81,0-3,4.18-5.45,9.31-5.45s9.79,5.01,9.98,5.23l.23.25ZM287.33,300.76c-4.48,6.73-11.63,11.15-20.68,12.78l-.39.07v-.39c.15-8.18-1-14.62-3.72-20.9l-.09-.2.15-.15c5.26-5.44,8.56-12.44,9.73-15.2l.08-.19h.21c6.55-.19,13-1.5,18.14-3.71l.36-.15.08.38c2.39,10.7,1.04,20.27-3.88,27.67ZM302.54,247.32c-2.26,7.99-8.36,17.28-24.46,17.28-.69,0-1.4-.02-2.12-.05l-.35-.02.05-.35c2.13-16.04-7.29-37.33-29.43-47.05-6,1.88-14.97,9.65-25.98,22.46l-.21.24-.24-.21c-1.49-1.28-3.12-2.6-4.85-3.99-4.03-3.25-8.6-6.92-12.94-11.49l-.19-.2.17-.22c13.56-17.01,24.8-28.94,42.12-39.59,7.55-4.65,16.13-6.49,24.82-5.33l.22.03.05.22c1.27,5.53.52,10.21.15,11.97l-.07.31-.31-.06c-.5-.1-1.01-.15-1.52-.15-4.29,0-7.77,3.49-7.77,7.78s3.49,7.77,7.77,7.77,7.78-3.49,7.78-7.77c0-1-.19-1.97-.56-2.89l-.05-.12.05-.12c1.93-4.73,2.87-9.55,2.79-14.31v-.48s.44.18.44.18c11.43,4.54,18.79,14,18.33,23.53-.29,6.12-2.33,10.66-6.82,15.2l-.34.34-.18-.45c-1.21-2.92-4.03-4.8-7.19-4.8-4.29,0-7.78,3.49-7.78,7.77s3.49,7.78,7.78,7.78c3.64,0,6.84-2.58,7.6-6.14l.09-.44.39.24c7.6,4.65,15.5,13.51,12.77,23.14Z"/>
        <path class="cls-1" d="M299.27,184.27l.63,1.38,1.11,1.04c1.44,1.36,3.33,2.11,5.32,2.11,4.29,0,7.78-3.49,7.78-7.77s-3.49-7.78-7.78-7.78-7.77,3.49-7.77,7.78c0,1.13.24,2.22.71,3.24Z"/>
      </g>
    </g>
  </g>
</svg>