<svg id="Capa_1" data-name="Capa 1" xmlns="http://www.w3.org/2000/svg" viewBox="0 0 841.89 595.28"><defs><style>.cls-1{fill:#ffffff;}.cls-2{fill:#ffffff;fill-rule:evenodd;}</style></defs><title>Innovación Educativa Logo</title><path class="cls-1" d="M326.59,278v-6.3l4.64-1V240.57l-4.64-1v-6.33h36.88v13.19h-8.15l-.22-4.89H342v10.37h15.23v8.24H342v10.58l4.65,1V278Z"/><path class="cls-1" d="M381,278.68a17,17,0,0,1-8.78-2.14,14,14,0,0,1-5.57-6,19.53,19.53,0,0,1-1.92-8.87v-.61a19.29,19.29,0,0,1,1.92-8.8,14.33,14.33,0,0,1,5.55-6,18.74,18.74,0,0,1,17.49,0,14.2,14.2,0,0,1,5.54,6,19.36,19.36,0,0,1,1.92,8.83v.61a19.46,19.46,0,0,1-1.92,8.84,14.25,14.25,0,0,1-5.54,6A16.74,16.74,0,0,1,381,278.68Zm0-8.21a4.56,4.56,0,0,0,3.15-1.06,6.15,6.15,0,0,0,1.73-3,17.87,17.87,0,0,0,.54-4.68v-.61a17.21,17.21,0,0,0-.54-4.57,6.24,6.24,0,0,0-1.74-3,5.2,5.2,0,0,0-6.37,0,6.14,6.14,0,0,0-1.72,3,17.69,17.69,0,0,0-.52,4.57v.61a18.45,18.45,0,0,0,.52,4.71,5.88,5.88,0,0,0,1.72,3A4.74,4.74,0,0,0,381,270.47Z"/><path class="cls-1" d="M400.9,278v-6.3l3.87-1V252.07l-4.61-1v-6.34H415l.25,4.06.06.83a10.07,10.07,0,0,1,2.75-4.17,6.33,6.33,0,0,1,4.11-1.34,14.65,14.65,0,0,1,1.6.11,11.87,11.87,0,0,1,1.88.39l-1.08,9.9-4.61-.21a5.59,5.59,0,0,0-2.51.35,6.07,6.07,0,0,0-1.83,1.37v14.7l3.88,1V278Z"/><path class="cls-1" d="M442.46,278.68a17,17,0,0,1-8.78-2.14,14,14,0,0,1-5.57-6,19.53,19.53,0,0,1-1.92-8.87v-.61a19.29,19.29,0,0,1,1.92-8.8,14.33,14.33,0,0,1,5.55-6,18.74,18.74,0,0,1,17.49,0,14.2,14.2,0,0,1,5.54,6,19.36,19.36,0,0,1,1.92,8.83v.61a19.46,19.46,0,0,1-1.92,8.84,14.25,14.25,0,0,1-5.54,6A16.74,16.74,0,0,1,442.46,278.68Zm0-8.21a4.58,4.58,0,0,0,3.15-1.06,6.15,6.15,0,0,0,1.73-3,17.87,17.87,0,0,0,.54-4.68v-.61a17.21,17.21,0,0,0-.54-4.57,6.24,6.24,0,0,0-1.74-3,5.2,5.2,0,0,0-6.37,0,6.14,6.14,0,0,0-1.72,3,17.66,17.66,0,0,0-.53,4.57v.61a18.42,18.42,0,0,0,.53,4.71,5.88,5.88,0,0,0,1.72,3A4.74,4.74,0,0,0,442.46,270.47Z"/><path class="cls-1" d="M488.25,278.68a11.1,11.1,0,0,1-6.72-2.06,12.9,12.9,0,0,1-4.31-5.8,23.52,23.52,0,0,1-1.49-8.72v-.65a25,25,0,0,1,1.51-9.09,13.74,13.74,0,0,1,4.29-6.06,10.47,10.47,0,0,1,6.6-2.17,9.09,9.09,0,0,1,4.57,1.1,10.94,10.94,0,0,1,3.37,3.06V237.37l-4.68-1v-6.33h15.47v40.69l3.88,1V278H497.51l-.8-4.12a10.61,10.61,0,0,1-3.57,3.55A9.34,9.34,0,0,1,488.25,278.68Zm3.36-8.27a6.09,6.09,0,0,0,2.52-.53,4.77,4.77,0,0,0,1.94-1.57V255a5.54,5.54,0,0,0-1.9-1.92,4.84,4.84,0,0,0-2.5-.66,4,4,0,0,0-3,1.14,6.63,6.63,0,0,0-1.64,3.17,19.52,19.52,0,0,0-.51,4.73v.65a13.74,13.74,0,0,0,1.11,6.14A4.06,4.06,0,0,0,491.61,270.41Z"/><path class="cls-1" d="M528.34,278.68a16.68,16.68,0,0,1-8.53-2.11,14.71,14.71,0,0,1-5.66-5.76,16.81,16.81,0,0,1-2-8.28v-1.14a21.42,21.42,0,0,1,1.79-9,14,14,0,0,1,5.22-6.11,15.4,15.4,0,0,1,8.47-2.17,15.6,15.6,0,0,1,7.64,1.74A11.33,11.33,0,0,1,540,251a18.88,18.88,0,0,1,1.63,8.29v5.57h-18.3l0,.21a6.82,6.82,0,0,0,1.06,2.79,5.62,5.62,0,0,0,2.26,1.92,8.08,8.08,0,0,0,3.57.71,17.76,17.76,0,0,0,4.11-.48,22.43,22.43,0,0,0,4.26-1.52L541,275a20,20,0,0,1-5.48,2.65A23.49,23.49,0,0,1,528.34,278.68Zm-5-20.52h8.46v-.8a10.92,10.92,0,0,0-.35-3,3.34,3.34,0,0,0-1.22-1.82,4.81,4.81,0,0,0-5,.17,4.52,4.52,0,0,0-1.41,2.16,14.82,14.82,0,0,0-.63,3.12Z"/><path class="cls-1" d="M328.9,345.7v-8l5.87-1.25V298.36l-5.87-1.25v-8h25.35v8l-5.87,1.25v38.13l5.87,1.25v8Z"/><path class="cls-1" d="M356.48,345.7v-8l4.9-1.25V312.9l-5.83-1.25v-8h18.74l.46,5.88a15.21,15.21,0,0,1,5.15-4.9,13.69,13.69,0,0,1,6.94-1.75,11.62,11.62,0,0,1,9.33,4q3.42,4,3.42,12.71v16.91l4.9,1.25v8H381.94v-8l4-1.25V319.54q0-3.37-1.36-4.8a5.16,5.16,0,0,0-3.89-1.42,7.23,7.23,0,0,0-3.26.68,6.67,6.67,0,0,0-2.37,2.05v20.44l3.49,1.25v8Z"/><path class="cls-1" d="M405.64,345.7v-8l4.9-1.25V312.9l-5.83-1.25v-8h18.73l.47,5.88a15.12,15.12,0,0,1,5.15-4.9,13.66,13.66,0,0,1,6.94-1.75,11.62,11.62,0,0,1,9.33,4q3.42,4,3.42,12.71v16.91l4.9,1.25v8H431.1v-8l4-1.25V319.54q0-3.37-1.37-4.8a5.14,5.14,0,0,0-3.88-1.42,7.31,7.31,0,0,0-3.27.68,6.76,6.76,0,0,0-2.37,2.05v20.44l3.5,1.25v8Z"/><path class="cls-1" d="M475.94,346.52a21.58,21.58,0,0,1-11.1-2.7,17.72,17.72,0,0,1-7-7.54,24.71,24.71,0,0,1-2.43-11.22v-.77a24.37,24.37,0,0,1,2.43-11.12,18,18,0,0,1,7-7.56,23.73,23.73,0,0,1,22.1,0,18,18,0,0,1,7,7.54,24.45,24.45,0,0,1,2.43,11.16v.77a24.6,24.6,0,0,1-2.43,11.18,18,18,0,0,1-7,7.56A21,21,0,0,1,475.94,346.52Zm0-10.38a5.69,5.69,0,0,0,4-1.34A7.67,7.67,0,0,0,482.1,331a22.76,22.76,0,0,0,.68-5.91v-.77a22,22,0,0,0-.68-5.78,7.81,7.81,0,0,0-2.19-3.84,5.8,5.8,0,0,0-4.05-1.38,5.7,5.7,0,0,0-4,1.38,7.73,7.73,0,0,0-2.18,3.84,22.53,22.53,0,0,0-.66,5.78v.77a23.44,23.44,0,0,0,.66,5.95,7.42,7.42,0,0,0,2.18,3.81A6,6,0,0,0,475.94,336.14Z"/><path class="cls-1" d="M513.47,345.7l-11.31-33.27-4.66-.78v-8h22.12v8l-3.77.78,4.47,16.05.85,3.19h.24l1-3.19,5.87-16-4.85-.82v-8h22.08v8l-4.82.94L528,345.7Z"/><path class="cls-1" d="M561.35,346.52a14.29,14.29,0,0,1-10-3.46,12.75,12.75,0,0,1-1.73-16.17,13.82,13.82,0,0,1,6.37-4.76,28.61,28.61,0,0,1,10.67-1.73h4.4v-2.49a6.58,6.58,0,0,0-1.44-4.29,5.53,5.53,0,0,0-4.55-1.77,8.89,8.89,0,0,0-2.47.33,7.59,7.59,0,0,0-2.08.95l-.93,5.36H550l-.19-11.7a63.24,63.24,0,0,1,7.48-2.76,30.8,30.8,0,0,1,8.73-1.16q8.6,0,13.65,3.94t5,11.26v15.51c0,.59,0,1.18,0,1.75a9.47,9.47,0,0,0,.17,1.63l4.55.78v8H573.55a13,13,0,0,1-1.08-1.86,9.55,9.55,0,0,1-.82-2.33,14.66,14.66,0,0,1-4.28,3.69A12.28,12.28,0,0,1,561.35,346.52Zm4.2-9.64a8,8,0,0,0,3-.6,7,7,0,0,0,2.59-1.81v-6.06h-4.24a6.67,6.67,0,0,0-4.26,1.2,3.9,3.9,0,0,0-1.5,3.19,3.76,3.76,0,0,0,1.25,3A4.64,4.64,0,0,0,565.55,336.88Z"/><path class="cls-1" d="M611.79,346.52A20.25,20.25,0,0,1,601,343.76a18.3,18.3,0,0,1-6.92-7.58,24.22,24.22,0,0,1-2.41-11v-.89a23.84,23.84,0,0,1,2.51-11.16,18.67,18.67,0,0,1,7-7.54,19.73,19.73,0,0,1,10.47-2.72A26.42,26.42,0,0,1,622,304.69a29.6,29.6,0,0,1,6.79,3.81l-.24,13.26H618.4l-1.64-7.62a5.13,5.13,0,0,0-1.76-1.09,5.52,5.52,0,0,0-1.85-.43,7.64,7.64,0,0,0-4.63,1.27,7,7,0,0,0-2.45,3.83,24.42,24.42,0,0,0-.73,6.57v.89a17.55,17.55,0,0,0,1,6.55,7.27,7.27,0,0,0,2.5,3.4,5.51,5.51,0,0,0,3.12,1,5.42,5.42,0,0,0,3.78-1.22,7.92,7.92,0,0,0,2.08-3.6h11.43l.16.24a25.18,25.18,0,0,1-2.92,8.33,12.35,12.35,0,0,1-5.5,5A21.78,21.78,0,0,1,611.79,346.52Z"/><path class="cls-1" d="M632.8,345.7v-8l4.94-1.25V312.9l-5.87-1.25v-8h19.51v32.85l4.9,1.25v8Zm4.55-50V285.06h14v10.62Z"/><path class="cls-1" d="M679,346.52a21.58,21.58,0,0,1-11.1-2.7,17.72,17.72,0,0,1-7-7.54,24.58,24.58,0,0,1-2.43-11.22v-.77a24.24,24.24,0,0,1,2.43-11.12,18,18,0,0,1,7-7.56,23.73,23.73,0,0,1,22.1,0,18,18,0,0,1,7,7.54,24.45,24.45,0,0,1,2.43,11.16v.77A24.6,24.6,0,0,1,697,336.24a18,18,0,0,1-7,7.56A21,21,0,0,1,679,346.52Zm-8.12-50.84L679,285.06h13.92l.08.24-10.89,10.38H670.92ZM679,336.14a5.69,5.69,0,0,0,4-1.34A7.67,7.67,0,0,0,685.2,331a22.76,22.76,0,0,0,.68-5.91v-.77a22,22,0,0,0-.68-5.78,7.75,7.75,0,0,0-2.2-3.84,6.55,6.55,0,0,0-8,0,7.73,7.73,0,0,0-2.18,3.84,22.53,22.53,0,0,0-.66,5.78v.77a23.44,23.44,0,0,0,.66,5.95,7.42,7.42,0,0,0,2.18,3.81A6,6,0,0,0,679,336.14Z"/><path class="cls-1" d="M702.46,345.7v-8l4.9-1.25V312.9l-5.83-1.25v-8h18.74l.46,5.88a15.21,15.21,0,0,1,5.15-4.9,13.69,13.69,0,0,1,6.94-1.75,11.62,11.62,0,0,1,9.33,4q3.42,4,3.42,12.71v16.91l4.9,1.25v8H727.92v-8l4-1.25V319.54q0-3.37-1.36-4.8a5.16,5.16,0,0,0-3.89-1.42,7.23,7.23,0,0,0-3.26.68,6.78,6.78,0,0,0-2.38,2.05v20.44l3.5,1.25v8Z"/><path class="cls-1" d="M329.11,420.34v-9l6.66-1.42V366.6l-6.66-1.41V356.1h51.32v18.53h-11.7l-.35-6.62H351.26V381.2h20.52v11.87H351.26v15.31h18l.35-6.92h11.56v18.88Z"/><path class="cls-1" d="M404.78,421.27a15.89,15.89,0,0,1-9.64-3A18.53,18.53,0,0,1,389,410a33.79,33.79,0,0,1-2.14-12.51v-.93a35.81,35.81,0,0,1,2.17-13,19.71,19.71,0,0,1,6.15-8.69,15,15,0,0,1,9.47-3.11,13.09,13.09,0,0,1,6.55,1.56,15.54,15.54,0,0,1,4.83,4.39V362l-6.71-1.41v-9.09h22.2v58.37L437,411.3v9h-19l-1.14-5.91a15.66,15.66,0,0,1-5.12,5.1A13.59,13.59,0,0,1,404.78,421.27Zm4.81-11.87a8.76,8.76,0,0,0,3.62-.75A6.91,6.91,0,0,0,416,406.4V387.29a7.93,7.93,0,0,0-2.71-2.75,6.92,6.92,0,0,0-3.6-1,5.77,5.77,0,0,0-4.28,1.63,9.48,9.48,0,0,0-2.36,4.54,28.06,28.06,0,0,0-.73,6.8v.93c0,3.79.53,6.73,1.59,8.8S406.86,409.4,409.59,409.4Z"/><path class="cls-1" d="M459.62,421.27q-7.41,0-11.65-4.68t-4.23-14.47v-19l-5.12-1.41V372.6h20.61v29.61a8.41,8.41,0,0,0,1.47,5.36,5.38,5.38,0,0,0,4.44,1.83,9.54,9.54,0,0,0,3.42-.64,8.83,8.83,0,0,0,3-1.92V383.1l-5.2-1.41V372.6h20.69v37.28l6,1.42v9H473.61l-1-5.42a15.58,15.58,0,0,1-5.58,4.72A16.55,16.55,0,0,1,459.62,421.27Z"/><path class="cls-1" d="M519.81,421.27a23,23,0,0,1-12.23-3.13,20.75,20.75,0,0,1-7.85-8.61A27.57,27.57,0,0,1,497,397.05v-1a27,27,0,0,1,2.85-12.66,21.31,21.31,0,0,1,7.94-8.56,22.48,22.48,0,0,1,11.89-3.09,29.92,29.92,0,0,1,11.72,2.07,33.35,33.35,0,0,1,7.7,4.33l-.27,15H527.31l-1.86-8.65a5.68,5.68,0,0,0-2-1.23,6,6,0,0,0-2.1-.49,8.61,8.61,0,0,0-5.25,1.44,7.84,7.84,0,0,0-2.78,4.34,27.58,27.58,0,0,0-.84,7.46v1a19.89,19.89,0,0,0,1.13,7.43,8.28,8.28,0,0,0,2.84,3.86,6.28,6.28,0,0,0,3.53,1.15,6.16,6.16,0,0,0,4.3-1.39,9,9,0,0,0,2.37-4.08h13l.17.26a28.57,28.57,0,0,1-3.3,9.47,14.17,14.17,0,0,1-6.25,5.64A24.7,24.7,0,0,1,519.81,421.27Z"/><path class="cls-1" d="M560.71,421.27a16.25,16.25,0,0,1-11.3-3.93,14.46,14.46,0,0,1-2-18.35,15.7,15.7,0,0,1,7.23-5.41,32.37,32.37,0,0,1,12.12-2h5v-2.83a7.46,7.46,0,0,0-1.63-4.87q-1.64-2-5.16-2a10.54,10.54,0,0,0-2.81.37,8.93,8.93,0,0,0-2.36,1.09l-1.05,6.09h-10.9l-.22-13.29a70,70,0,0,1,8.49-3.13,34.7,34.7,0,0,1,9.91-1.32q9.75,0,15.48,4.48T587.27,389v17.61c0,.67,0,1.33,0,2a10.81,10.81,0,0,0,.2,1.85l5.16.89v9H574.56a15.41,15.41,0,0,1-1.23-2.12,10.3,10.3,0,0,1-.93-2.64,16.71,16.71,0,0,1-4.85,4.19A14,14,0,0,1,560.71,421.27Zm4.76-10.94a9,9,0,0,0,3.38-.69,7.79,7.79,0,0,0,2.93-2.05v-6.88H567a7.53,7.53,0,0,0-4.83,1.36,4.44,4.44,0,0,0-1.7,3.62,4.27,4.27,0,0,0,1.41,3.4A5.32,5.32,0,0,0,565.47,410.33Z"/><path class="cls-1" d="M613.17,421.36q-7.5,0-11.41-4t-3.9-12.64V383.28h-6V372.6h6V360.82h15.4V372.6h7.81v10.68h-7.81v21.4a4.19,4.19,0,0,0,1,3.26,4.28,4.28,0,0,0,2.92.93,13.82,13.82,0,0,0,1.58-.09c.54-.06,1.06-.13,1.59-.22l1.06,11.56a36.32,36.32,0,0,1-4.08.91A26.48,26.48,0,0,1,613.17,421.36Z"/><path class="cls-1" d="M627,420.34v-9l5.61-1.42V383.1L626,381.69V372.6h22.15v37.28l5.56,1.42v9Zm5.16-56.78V351.51h15.93v12.05Z"/><path class="cls-1" d="M670.73,420.34l-12.84-37.77-5.3-.88V372.6H677.7v9l-4.28.88,5.07,18.22,1,3.62h.27l1.19-3.62,6.66-18.18-5.51-.92v-9h25.06v9.09l-5.47,1.06-14.48,37.59Z"/><path class="cls-1" d="M723.26,421.27a16.27,16.27,0,0,1-11.3-3.93A14.49,14.49,0,0,1,710,399a15.73,15.73,0,0,1,7.24-5.41,32.35,32.35,0,0,1,12.11-2h5v-2.83a7.47,7.47,0,0,0-1.64-4.87c-1.08-1.34-2.81-2-5.16-2a10.47,10.47,0,0,0-2.8.37,8.65,8.65,0,0,0-2.36,1.09l-1.06,6.09h-10.9l-.22-13.29a71.28,71.28,0,0,1,8.49-3.13,34.7,34.7,0,0,1,9.91-1.32q9.75,0,15.49,4.48T749.82,389v17.61q0,1,0,2a10.83,10.83,0,0,0,.19,1.85l5.16.89v9H737.12a14.38,14.38,0,0,1-1.24-2.12,10.69,10.69,0,0,1-.93-2.64,16.71,16.71,0,0,1-4.85,4.19A13.91,13.91,0,0,1,723.26,421.27ZM728,410.33a8.91,8.91,0,0,0,3.37-.69,7.9,7.9,0,0,0,2.94-2.05v-6.88h-4.81a7.58,7.58,0,0,0-4.84,1.36,4.43,4.43,0,0,0-1.69,3.62,4.27,4.27,0,0,0,1.41,3.4A5.3,5.3,0,0,0,728,410.33Z"/><path class="cls-2" d="M228.58,386.38a5.87,5.87,0,0,1-5.2,6.15L161,402.41c-4.35.69-6.93-2.52-7.13-5.84h0v0c0-.28,0-.56,0-.83v-9.33ZM163,406.84c-8.12,1.28-6.17,13.58,2,12.3l55-8.71c8.12-1.29,6.17-13.59-1.94-12.3l-55,8.71Zm15.77,31.63-2.27-4.17-3.18.5c-8.11,1.29-10.06-11-2-12.3l38.25-6.05c8.11-1.29,10.06,11,2,12.29l-5.3.84-5.39,8.89C198.64,442.24,180.78,442.08,178.81,438.47Z"/><path class="cls-1" d="M194.09,376.8h25.67c11.76,0,13-4.93,14.89-12.4a50.4,50.4,0,0,1,6.55-16.2c4.88-7.55,11-15.2,17.38-23.29,16.94-21.36,36.16-45.57,36.16-73.65,0-53.11-44.8-96.31-99.85-96.31l-.93.76V376.8m11.89-3.11H197.2V275.88H229c-5.91,7.88-10.85,17.07-16,33.74C207.55,327.17,206.13,364,205.85,373.69ZM256.14,323c-6.48,8.16-12.59,15.86-17.55,23.54a52.86,52.86,0,0,0-7,17.13c-1.85,7.31-2.54,10.05-11.88,10.05h-5c.31-10.2,1.73-45.32,6.76-61.49,4.83-15.58,9.54-24.24,14.89-31.36a9.91,9.91,0,1,0-6.84-13.72H197.08v-109c52.33,1.13,94.55,42.5,94.55,93.18C291.63,278.25,272.78,302,256.14,323Z"/><path class="cls-1" d="M185,228.06l0-21.59c0-5.09-4.12-11.65-9.2-14.64a10.48,10.48,0,0,0,9.18-8l0-21.06,0-.31A11,11,0,0,0,174.68,154h0l-21.74,1.57A26,26,0,0,0,130,175.51l-.36.38v0l-.56.61h0l-2.8,3a22,22,0,0,1-4,3.4l-21.64,12.57c-7.71,4.43-14,14.31-14,22v34.84c0,7.71,6.26,17.41,14,21.62l5.8,3.16,0,0c-4.83,5-7.83,11.43-7.83,16.85V309.6c0,7.71,6.27,17.58,14,22l17.34,9.9c6.12,3.52,11.87,16.69,11.87,22.65A12.86,12.86,0,0,0,154.43,377l15.82.71h.61a14,14,0,0,0,2.33-.2l.85-.15a14.69,14.69,0,0,0,5.84-1.86,11.58,11.58,0,0,0,5.05-7.31l0-37.13,0-.31a11.09,11.09,0,0,0-8.63-8.26,11.13,11.13,0,0,0,8.66-8.35l0-21.47,0-.31a10.43,10.43,0,0,0-9.15-7.92c5.07-3,9.2-9.55,9.2-14.64V245l0-.31a11.09,11.09,0,0,0-8.63-8.26A11.12,11.12,0,0,0,185,228.06Zm-10.2,6.41h-12c-.55,0-5.37,0-6.68.47-.46.16-1.37.57-2.79,1.24l-.53.27a34.74,34.74,0,0,0-7.06,4.19l-4.2,3.72a8.81,8.81,0,0,0-5.65-2,9,9,0,1,0,8.06,5.05l4.17-3.71a29.59,29.59,0,0,1,5.23-3.22l1.17-.56.89-.4c.31-.14,1-.4,1.43-.59l.48-.2a21,21,0,0,1,4.39-.37h13.1a8.8,8.8,0,0,1,8.15,6.74V269.8c0,4.36-3.74,10.24-8.17,12.85-3.12.25-7.6,2.44-10.37,4.44L159.75,291a5,5,0,0,0-2.33-.57,5,5,0,1,0,5.05,5,4.8,4.8,0,0,0-.24-1.5l4.39-3.69c3.35-2.4,7.25-3.73,8.67-3.73a8.23,8.23,0,0,1,7.61,6.29v21a8.76,8.76,0,0,1-8.13,6.73l-.23,0-14.22,0c-2.15,0-7.72-1.87-12.54-5.34L140.25,309l-2.41-2.42V288.52c0-4.13,3.56-9.79,7.78-12.38l10-6.27a8.95,8.95,0,1,0-2.94-6.61,9.08,9.08,0,0,0,.69,3.45l-9.76,6.14c-5.39,3.3-9.61,10.18-9.61,15.67V306H126.3a8.95,8.95,0,1,0,.1,3.87h3.27l5.42-.11,10.17,8.44.15.11c4.77,3.46,11.32,6.16,14.91,6.16h3.05a12.25,12.25,0,0,0-3.25,6.19,2.16,2.16,0,0,0,0,.35v5.29a9,9,0,1,0,11.21,8.67,9,9,0,0,0-7.34-8.81v-5a8.81,8.81,0,0,1,8.15-6.73h2.64a8.81,8.81,0,0,1,8.15,6.74v36.61a9.54,9.54,0,0,1-4.15,6,13.05,13.05,0,0,1-5.06,1.56l-.86.14a11,11,0,0,1-2.49.17l-15.85-.71a10.8,10.8,0,0,1-10.64-10.75c0-6.42-6-20.49-12.91-24.45l-17.34-9.9c-7.13-4.1-12.93-13.17-12.93-20.22V294c0-4.9,2.78-10.81,7.2-15.36l0,0a1.69,1.69,0,0,0,.3-.3,23.79,23.79,0,0,1,5.38-4.1l1.88-1a5.05,5.05,0,0,0,3.15,1.12h0a5.05,5.05,0,1,0-5.05-5.05,3.39,3.39,0,0,0,0,.53l-1.89,1a27.39,27.39,0,0,0-5.35,3.88l-4.7-2.57c-7.12-3.88-12.9-12.76-12.9-19.79V217.5c0-7.05,5.8-16.12,12.93-20.23l21.71-12.6a23.81,23.81,0,0,0,4.15-3.5v34c0,2.38-2.06,7.11-5.15,10.37l-6.72,5.74a9,9,0,1,0,3.56,7.14,9,9,0,0,0-1-4.2l6.71-5.72.19-.17c3.55-3.7,6.33-9.48,6.33-13.16V203.24a18.4,18.4,0,0,0,4.78,4.35l5.71,3.59.37.27a35,35,0,0,0,3.29,2.15,10.89,10.89,0,0,0,4.28.29l.83,0h5.09a9,9,0,1,0,.39-3.87h-4.79v0h-.71c-.77,0-2.43,0-3.07,0a2.23,2.23,0,0,1-1.45-.58l-2.34-1.58-5.55-3.5c-3.7-2.26-6.82-7.22-6.82-10.82V181a23.79,23.79,0,0,1,21.67-23.29l21.66-1.57a8.81,8.81,0,0,1,8.15,6.74v20.64a8.22,8.22,0,0,1-7.61,6.28c-1.42,0-5.3-1.32-8.63-3.71L165.38,185a9,9,0,1,0-2.55,2.92l1.35,1.13.12.1c2.83,2,7.31,4.23,10.43,4.48,4.43,2.61,8.17,8.49,8.17,12.85v21.27A8.78,8.78,0,0,1,174.75,234.47Zm-32,16.84a6.9,6.9,0,1,1-2-4.83l.53.54.43.7A6.82,6.82,0,0,1,142.72,251.31Zm17.67,44.11a3,3,0,1,1-3-3,3.05,3.05,0,0,1,1.42.36l1,.57.37,1.11A3,3,0,0,1,160.39,295.42Zm-5.66-32.16a6.89,6.89,0,1,1,1.77,4.6l-.55-.61-.36-.66A6.83,6.83,0,0,1,154.73,263.26Zm-30.19,44.67-.07.78a6.92,6.92,0,1,1,0-1.57Zm44.69,37a6.89,6.89,0,1,1-7.95-6.8l.79-.12.78.05A6.92,6.92,0,0,1,169.23,344.93Zm-53.59-75.67a3,3,0,0,1,6,0,3,3,0,0,1-3,3h0a2.93,2.93,0,0,1-1.89-.69l-.9-.75-.14-1.17A2.38,2.38,0,0,1,115.64,269.26Zm1.53-30.89a6.9,6.9,0,1,1-2.19-5l.6.56.42.62A6.91,6.91,0,0,1,117.17,238.37ZM157.79,212l.18-.78a6.87,6.87,0,1,1-.18,1.56Zm6.6-31.31a6.8,6.8,0,0,1-1.22,3.9l-.43.63-.6.55a6.88,6.88,0,1,1,2.25-5.08Z"/></svg>